<svg width="275" height="280" viewBox="0 0 275 280" fill="none" xmlns="http://www.w3.org/2000/svg">
<path fill-rule="evenodd" clip-rule="evenodd" d="M72.0303 274.418C84.4179 279.805 98.2505 280.804 111.199 277.246C120.8 274.786 130.169 271.978 139.886 269.504C144.819 268.146 149.735 266.894 154.679 265.595C159.622 264.296 165.001 262.991 170.155 261.609C175.308 260.227 179.677 258.925 184.453 257.636C191.873 255.695 199.293 253.754 206.74 251.766C212.501 250.157 218.251 248.381 223.968 246.756C227.355 245.768 230.812 245.033 234.143 243.862C248.08 238.699 259.737 228.879 267.134 216.07C267.569 215.317 268.016 214.543 268.4 213.769C272.478 206.317 274.686 197.981 274.837 189.464C275.053 184.389 274.849 179.301 274.225 174.251C273.879 170.797 272.581 170.1 269.183 170.655C268.533 170.763 267.892 170.919 267.266 171.123C263.625 172.177 260.034 173.252 256.356 174.277C251.133 175.779 245.833 177.228 240.587 178.77C235.341 180.312 229.618 182.041 224.145 183.603C221.511 184.394 218.845 184.99 216.213 185.746C210.596 187.385 204.987 189.181 199.394 190.78C193.8 192.379 188.294 193.718 182.82 195.28C177.347 196.842 170.626 198.742 164.493 200.448C158.361 202.154 153.177 203.572 147.502 205.125C140.085 207.201 132.724 209.46 125.358 211.557C120.807 212.816 116.244 213.907 111.716 215.126C105.462 216.762 99.485 218.558 93.3052 220.237C87.1254 221.915 82.6984 222.881 77.3946 224.336C65.599 227.486 53.7891 230.687 41.9648 233.939C41.2123 234.13 40.4734 234.369 39.7524 234.653C36.5958 235.881 36.1479 236.298 37.4838 239.222C39.3899 243.917 41.7273 248.431 44.4661 252.706C49.5269 259.881 56.0999 265.88 63.7205 270.279L64.0984 270.497C66.644 271.966 69.278 273.276 71.985 274.419L72.0024 274.482L72.0303 274.418ZM34.0753 187.89L34.5545 188.167C41.173 191.985 49.117 192.73 56.2724 190.204C56.8887 190.008 57.5149 189.845 58.1486 189.713L77.1574 184.938C83.4153 183.296 90.1973 181.493 96.7693 179.774C102.207 178.352 107.609 177.006 113.01 175.554C118.412 174.101 124.286 172.406 130.059 170.964C135.832 169.521 141.942 168.042 147.898 166.563L169.301 160.868L208.97 150.485C226.521 145.856 244.044 141.24 261.538 136.638C264.889 135.789 265.088 135.539 264.195 132.036C261.936 123.618 259.574 115.193 257.501 106.829C256.235 101.625 253.293 96.9586 249.125 93.5446C245.28 90.1732 240.707 87.7307 235.768 86.4107C232.112 85.3443 228.257 85.1933 224.548 85.971L204.03 90.959C199.223 92.1145 194.389 93.2094 189.595 94.4349C179.995 96.8954 170.452 99.4428 160.874 101.863C153.098 103.83 145.223 105.686 137.372 107.609L105.098 115.61C95.0302 118.148 84.9023 120.695 74.7532 123.186C73.113 123.977 71.1566 123.792 69.6775 122.704C68.1985 121.617 67.4423 119.808 67.7158 118.011C67.162 111.301 68.6609 104.603 72.0157 98.7954C72.5904 97.8025 73.2154 96.8396 73.8884 95.9104C77.8048 90.364 83.4393 86.2494 89.9452 84.1849C97.6647 81.8654 105.533 80.0053 113.319 77.9911C118.861 76.5754 124.441 75.2798 130.013 73.8279C137.188 71.9851 144.327 70.0155 151.501 68.1728C152.608 67.8154 153.696 67.3947 154.82 67.1008L161.983 65.0912C167.283 63.7048 172.589 62.4468 177.833 61.0186C183.076 59.5904 189.139 57.8797 194.788 56.2773C195.31 56.1069 195.802 56.08 196.3 55.9497C202.403 54.591 208.19 53.032 214.106 51.5297C216.895 50.8283 219.63 50.0506 222.386 49.3296C227.162 48.0407 231.987 46.8691 236.683 45.4539C239.538 44.639 240.196 43.4985 238.927 40.8182C236.978 36.1848 234.631 31.7234 231.912 27.484C224.76 17.6128 214.946 9.94452 203.621 5.37868C192.524 0.597188 180.239 -0.642378 168.475 1.83243C159.63 3.54618 151.046 6.25595 142.371 8.59312C136.113 10.2358 129.695 12.1414 123.095 13.7376L104.965 18.5482C99.4336 20.0235 93.9457 21.5327 88.3971 22.9445C82.8485 24.3564 76.047 25.9431 69.8122 27.5457C63.5775 29.1484 57.2975 30.8139 50.9049 32.69C45.885 34.0517 40.9767 35.7804 36.2199 37.8621C26.9644 42.414 18.9604 49.1108 12.8754 57.3942C9.79817 61.4771 7.23294 65.9202 5.23558 70.6267C1.90579 79.1306 0.456045 88.2641 0.984103 97.4116C1.4083 103.913 2.69739 110.339 4.81764 116.521C9.60307 133.717 14.3085 150.974 18.7124 168.269C20.4477 176.251 25.5042 183.159 32.6224 187.274L32.7709 187.36L34.058 187.889L34.0753 187.89Z" fill="#818CF8"/>
</svg>
