<svg width="53" height="53" viewBox="0 0 53 53" fill="none" xmlns="http://www.w3.org/2000/svg">
<path d="M17.7 20.9C24.6 17.6 30 12 33.1 5C31.1 2.9 28.5 1.4 25.7 0.5L24.2 0C24.1 0.2 24 0.500012 24 0.700012C21.6 7.50001 16.7 13 10.1 16.1C5.50001 18.3 2.1 22.3 0.5 27.1L0 28.6C0.2 28.7 0.500005 28.8 0.700005 28.8C2.6 29.5 4.5 30.4 6.3 31.5C8.8 27 12.8 23.2 17.7 20.9Z" fill="#201B21"/>
<path d="M46.7 21.3C43 26.9 37.9001 31.4001 31.6001 34.4001C26.5001 36.8001 22.6 41.3001 20.8 46.7001L20.3 48.4001C22.2 50.1001 24.5 51.4001 27 52.2001L28.5 52.7001C28.6 52.5001 28.7 52.2001 28.7 52.0001C31.1 45.2001 36.0001 39.7001 42.6001 36.6001C47.2001 34.4001 50.7 30.4001 52.2 25.6001L52.7 24.1001C50.6 23.5001 48.6 22.5 46.7 21.3Z" fill="#201B21"/>
<path d="M16.2999 43.2001C18.7999 37.2001 23.3999 32.3001 29.2999 29.5001C34.6999 26.9001 39.1999 22.9001 42.2999 18.0001C39.9999 15.8001 38.0999 13.3 36.6999 10.3C32.9999 17.1 27.2 22.6001 20.1 26.0001C16 27.9001 12.7 31.2001 10.7 35.2001C12.9 37.3001 14.7 39.9 16.1 42.8C16.1 42.8 16.1999 43.0001 16.2999 43.2001Z" fill="#201B21"/>
</svg>
